HIERARCHY
ROOT Hips
{
	OFFSET -0.001795 -0.223333 0.028219
	CHANNELS 6 Xposition Yposition Zposition Zrotation Yrotation Xrotation 
	JOINT LeftUpLeg
	{
		OFFSET 0.069520 -0.091406 -0.006815
		CHANNELS 3 Zrotation Yrotation Xrotation
		JOINT LeftLeg
		{
			OFFSET 0.034277 -0.375199 -0.004496
			CHANNELS 3 Zrotation Yrotation Xrotation
			JOINT LeftFoot
			{
				OFFSET -0.013596 -0.397961 -0.043693
				CHANNELS 3 Zrotation Yrotation Xrotation
				JOINT LeftToe
				{
					OFFSET 0.026358 -0.055791 0.119288
					CHANNELS 3 Zrotation Yrotation Xrotation
					End Site
					{
						OFFSET 0.000000 0.000000 0.000000
					}
				}
			}
		}
	}
	JOINT RightUpLeg
	{
		OFFSET -0.067670 -0.090522 -0.004320
		CHANNELS 3 Zrotation Yrotation Xrotation
		JOINT RightLeg
		{
			OFFSET -0.038290 -0.382569 -0.008850
			CHANNELS 3 Zrotation Yrotation Xrotation
			JOINT RightFoot
			{
				OFFSET 0.015774 -0.398415 -0.042312
				CHANNELS 3 Zrotation Yrotation Xrotation
				JOINT RightToe
				{
					OFFSET -0.025372 -0.048144 0.123348
					CHANNELS 3 Zrotation Yrotation Xrotation
					End Site
					{
						OFFSET 0.000000 0.000000 0.000000
					}
				}
			}
		}
	}
	JOINT Spine
	{
		OFFSET -0.002533 0.108963 -0.026696
		CHANNELS 3 Zrotation Yrotation Xrotation
		JOINT Spine1
		{
			OFFSET 0.005487 0.135180 0.001092
			CHANNELS 3 Zrotation Yrotation Xrotation
			JOINT Spine2
			{
				OFFSET 0.001457 0.052922 0.025425
				CHANNELS 3 Zrotation Yrotation Xrotation
				JOINT Neck
				{
					OFFSET -0.002778 0.213870 -0.042857
					CHANNELS 3 Zrotation Yrotation Xrotation
					JOINT Head
					{
						OFFSET 0.005152 0.064970 0.051349
						CHANNELS 3 Zrotation Yrotation Xrotation
						End Site
						{
							OFFSET 0.000000 0.000000 0.000000
						}
					}
				}
				JOINT LeftShoulder
				{
					OFFSET 0.078845 0.121749 -0.034090
					CHANNELS 3 Zrotation Yrotation Xrotation
					JOINT LeftArm
					{
						OFFSET 0.090977 0.030469 -0.008868
						CHANNELS 3 Zrotation Yrotation Xrotation
						JOINT LeftForeArm
						{
							OFFSET 0.259612 -0.012772 -0.027456
							CHANNELS 3 Zrotation Yrotation Xrotation
							JOINT LeftHand
							{
								OFFSET 0.249234 0.008986 -0.001171
								CHANNELS 3 Zrotation Yrotation Xrotation
								End Site
								{
									OFFSET 0.000000 0.000000 0.000000
								}
							}
						}
					}
				}
				JOINT RightShoulder
				{
					OFFSET -0.081759 0.118833 -0.038615
					CHANNELS 3 Zrotation Yrotation Xrotation
					JOINT RightArm
					{
						OFFSET -0.096012 0.032551 -0.009143
						CHANNELS 3 Zrotation Yrotation Xrotation
						JOINT RightForeArm
						{
							OFFSET -0.253742 -0.013329 -0.021401
							CHANNELS 3 Zrotation Yrotation Xrotation
							JOINT RightHand
							{
								OFFSET -0.255298 0.007772 -0.005559
								CHANNELS 3 Zrotation Yrotation Xrotation
								End Site
								{
									OFFSET 0.000000 0.000000 0.000000
								}
							}
						}
					}
				}
			}
		}
	}
}
MOTION
Frames: 5
Frame Time: 0.050000
-0.029293 0.978342 -0.092711 -2.082117 -7.579047 -4.514653 8.298379 -0.006071 -12.888839 -10.140051 7.071591 54.222806 5.627061 14.003124 18.746664 0.000000 0.000000 0.000000 3.940134 -0.527244 3.512220 1.030550 0.041683 3.862565 -0.898278 -7.029930 10.302579 0.000000 0.000000 0.000000 4.864869 -0.807332 10.968308 -4.534109 1.603376 -28.625712 1.563532 10.907382 35.632886 10.114884 -2.627496 -31.457070 0.000000 0.000000 0.000000 -21.599681 -4.033600 -0.411686 -50.179623 -6.187765 -6.235405 -13.522954 -21.425325 3.441856 0.000000 0.000000 0.000000 19.794947 -4.756333 -1.963331 60.718826 8.731434 -5.019734 17.167834 25.432673 5.477497 0.000000 0.000000 0.000000 
-0.030474 0.980569 -0.097551 -1.152268 -9.602396 -4.050281 7.285673 -0.095840 -19.092946 -9.749493 6.367951 47.027083 6.791796 15.163922 17.083135 0.000000 0.000000 0.000000 3.031197 -1.036507 8.728096 -0.149386 0.011535 -0.041500 -0.912046 -6.934978 9.533723 0.000000 0.000000 0.000000 4.326174 -0.745745 10.992478 -5.630801 1.817055 -29.641803 2.812814 13.001060 36.661625 9.384430 -2.243419 -30.229942 0.000000 0.000000 0.000000 -21.662878 -3.005088 -1.211244 -50.669292 -2.943562 -7.640051 -13.340418 -18.923324 2.973801 0.000000 0.000000 0.000000 18.211320 -3.883769 -1.273186 60.598604 12.255556 -3.163089 17.421912 30.902215 7.040783 0.000000 0.000000 0.000000 
-0.031363 0.975375 -0.103082 -0.030832 -11.318154 -4.120386 6.578285 -0.108539 -23.182514 -8.955881 4.456629 34.282368 9.902471 18.988122 20.965129 0.000000 0.000000 0.000000 1.596810 -1.204031 13.202094 -0.725979 -0.030011 -2.060180 -0.593597 -5.691851 7.826654 0.000000 0.000000 0.000000 3.681097 -0.677603 11.174945 -6.978423 2.088881 -30.158373 4.134816 15.105182 37.777708 9.187727 -1.817350 -31.246381 0.000000 0.000000 0.000000 -21.059703 -2.579133 -1.618664 -51.484834 -1.234863 -8.550721 -12.370829 -16.013299 2.348395 0.000000 0.000000 0.000000 18.263576 -4.510688 -1.378960 60.322034 17.237087 -0.677171 16.060239 33.819764 7.580045 0.000000 0.000000 0.000000 
-0.032161 0.963520 -0.108515 -0.277901 -12.346789 -3.521974 6.282321 -0.067552 -25.707583 -5.107375 1.521540 19.452323 8.656375 16.933651 23.085732 0.000000 0.000000 0.000000 1.422837 -1.334129 16.077990 -0.410509 -0.085901 -2.957742 -0.861660 -5.535146 6.304493 0.000000 0.000000 0.000000 3.590682 -0.669276 11.271649 -7.084489 2.110517 -30.119944 4.503764 17.380090 37.695520 10.272464 -2.256579 -30.298644 0.000000 0.000000 0.000000 -20.470003 -2.798417 -1.928914 -50.810912 1.945811 -9.558919 -13.777949 -14.748878 2.276618 0.000000 0.000000 0.000000 17.861344 -5.727600 -1.775778 60.405996 20.403869 1.266275 14.450185 36.829264 7.995007 0.000000 0.000000 0.000000 
-0.032551 0.949850 -0.113224 -0.354407 -13.880920 -3.834269 6.692014 0.160637 -25.391430 -2.852399 0.438757 5.849003 9.997551 18.223403 25.045222 0.000000 0.000000 0.000000 1.233812 -1.359285 18.725730 -0.868016 -0.035370 -2.379760 -1.672967 -5.326153 2.476699 0.000000 0.000000 0.000000 2.772505 -0.610506 12.225882 -7.255054 2.138496 -30.796952 5.689079 17.205091 38.329277 10.234916 -2.338206 -31.021205 0.000000 0.000000 0.000000 -21.445788 -0.908547 -2.803165 -49.806663 4.054517 -10.271198 -15.269418 -13.625405 2.297492 0.000000 0.000000 0.000000 17.425327 -5.398958 -1.793182 60.210261 22.768341 2.418135 14.047174 37.519944 7.954877 0.000000 0.000000 0.000000 
